<mxfile host="Electron" modified="2024-01-29T07:49:18.253Z" agent="Mozilla/5.0 (Macintosh; Intel Mac OS X 10_15_7) AppleWebKit/537.36 (KHTML, like Gecko) draw.io/23.0.2 Chrome/120.0.6099.109 Electron/28.1.0 Safari/537.36" etag="LEpC-ksHE9P8he369sLg" version="23.0.2" type="device">
  <diagram name="Sida-1" id="a8eqyGM2VcXPqRdHQ_DW">
    <mxGraphModel dx="3349" dy="2635" grid="1" gridSize="10" guides="1" tooltips="1" connect="1" arrows="1" fold="1" page="1" pageScale="1" pageWidth="827" pageHeight="1169" math="0" shadow="0">
      <root>
        <mxCell id="0" />
        <mxCell id="1" parent="0" />
        <mxCell id="KZAd2MFrPLXnGe_yaYhW-138" value="culsans_tb" style="rounded=0;whiteSpace=wrap;html=1;horizontal=1;verticalAlign=top;fillColor=default;fontColor=#333333;strokeColor=#666666;" parent="1" vertex="1">
          <mxGeometry x="-180" y="-20" width="1300" height="1120" as="geometry" />
        </mxCell>
        <mxCell id="KZAd2MFrPLXnGe_yaYhW-2" value="DUT (culsans_top)" style="rounded=0;whiteSpace=wrap;html=1;verticalAlign=bottom;horizontal=1;labelBackgroundColor=none;align=right;" parent="1" vertex="1">
          <mxGeometry x="30" y="440" width="1060" height="630" as="geometry" />
        </mxCell>
        <mxCell id="KZAd2MFrPLXnGe_yaYhW-131" value="Core N-1" style="rounded=0;whiteSpace=wrap;html=1;dashed=1;horizontal=0;verticalAlign=top;opacity=20;labelBackgroundColor=none;fillColor=#dae8fc;strokeColor=none;" parent="1" vertex="1">
          <mxGeometry x="590" y="90" width="490" height="640" as="geometry" />
        </mxCell>
        <mxCell id="KZAd2MFrPLXnGe_yaYhW-130" value="Core 0" style="rounded=0;whiteSpace=wrap;html=1;dashed=1;horizontal=0;verticalAlign=top;opacity=20;labelBackgroundColor=none;strokeColor=none;fillColor=#dae8fc;" parent="1" vertex="1">
          <mxGeometry x="50" y="90" width="490" height="640" as="geometry" />
        </mxCell>
        <mxCell id="KZAd2MFrPLXnGe_yaYhW-3" value="cva6 (stripped)" style="rounded=0;whiteSpace=wrap;html=1;horizontal=1;verticalAlign=bottom;labelBackgroundColor=#FFFFFF;align=right;" parent="1" vertex="1">
          <mxGeometry x="110" y="470" width="400" height="250" as="geometry" />
        </mxCell>
        <mxCell id="KZAd2MFrPLXnGe_yaYhW-58" style="edgeStyle=orthogonalEdgeStyle;rounded=0;orthogonalLoop=1;jettySize=auto;html=1;exitX=0.5;exitY=0;exitDx=0;exitDy=0;startArrow=diamond;startFill=0;labelBackgroundColor=none;fontColor=default;entryX=0.155;entryY=1;entryDx=0;entryDy=0;entryPerimeter=0;fillColor=#fff2cc;strokeColor=#d6b656;" parent="1" source="KZAd2MFrPLXnGe_yaYhW-19" target="KZAd2MFrPLXnGe_yaYhW-54" edge="1">
          <mxGeometry relative="1" as="geometry" />
        </mxCell>
        <mxCell id="nXqxrG5YPyN84t3Gushb-6" value="cache subsystem" style="rounded=0;whiteSpace=wrap;html=1;verticalAlign=bottom;labelBackgroundColor=none;horizontal=1;align=right;" parent="1" vertex="1">
          <mxGeometry x="140" y="500" width="350" height="190" as="geometry" />
        </mxCell>
        <mxCell id="KZAd2MFrPLXnGe_yaYhW-12" style="edgeStyle=orthogonalEdgeStyle;rounded=0;orthogonalLoop=1;jettySize=auto;html=1;exitX=0.5;exitY=1;exitDx=0;exitDy=0;entryX=0.75;entryY=1;entryDx=0;entryDy=0;startArrow=classic;startFill=1;labelBackgroundColor=none;fontColor=default;" parent="1" source="nXqxrG5YPyN84t3Gushb-4" target="KZAd2MFrPLXnGe_yaYhW-6" edge="1">
          <mxGeometry relative="1" as="geometry">
            <mxPoint x="249" y="610" as="targetPoint" />
          </mxGeometry>
        </mxCell>
        <mxCell id="nXqxrG5YPyN84t3Gushb-4" value="I$" style="rounded=0;whiteSpace=wrap;html=1;labelBackgroundColor=none;verticalAlign=top;" parent="1" vertex="1">
          <mxGeometry x="180" y="530" width="60" height="60" as="geometry" />
        </mxCell>
        <mxCell id="KZAd2MFrPLXnGe_yaYhW-11" style="edgeStyle=orthogonalEdgeStyle;rounded=0;orthogonalLoop=1;jettySize=auto;html=1;exitX=0.5;exitY=1;exitDx=0;exitDy=0;entryX=0.25;entryY=1;entryDx=0;entryDy=0;startArrow=classic;startFill=1;labelBackgroundColor=none;fontColor=default;" parent="1" source="KZAd2MFrPLXnGe_yaYhW-4" target="KZAd2MFrPLXnGe_yaYhW-6" edge="1">
          <mxGeometry relative="1" as="geometry">
            <mxPoint x="282.45" y="630" as="targetPoint" />
          </mxGeometry>
        </mxCell>
        <mxCell id="KZAd2MFrPLXnGe_yaYhW-62" style="edgeStyle=orthogonalEdgeStyle;rounded=0;orthogonalLoop=1;jettySize=auto;html=1;entryX=0.5;entryY=1;entryDx=0;entryDy=0;endArrow=box;endFill=0;startArrow=classic;startFill=1;dashed=1;labelBackgroundColor=none;fontColor=default;exitX=0.9;exitY=-0.002;exitDx=0;exitDy=0;exitPerimeter=0;fillColor=#fff2cc;strokeColor=#d6b656;" parent="1" source="KZAd2MFrPLXnGe_yaYhW-4" target="KZAd2MFrPLXnGe_yaYhW-44" edge="1">
          <mxGeometry relative="1" as="geometry">
            <mxPoint x="479.95" y="580" as="sourcePoint" />
            <mxPoint x="479.95" y="400" as="targetPoint" />
            <Array as="points" />
          </mxGeometry>
        </mxCell>
        <mxCell id="KZAd2MFrPLXnGe_yaYhW-4" value="D$" style="rounded=0;whiteSpace=wrap;html=1;labelBackgroundColor=none;verticalAlign=top;" parent="1" vertex="1">
          <mxGeometry x="270" y="530" width="199.95" height="60" as="geometry" />
        </mxCell>
        <mxCell id="KZAd2MFrPLXnGe_yaYhW-5" style="edgeStyle=orthogonalEdgeStyle;rounded=0;orthogonalLoop=1;jettySize=auto;html=1;exitX=0.5;exitY=1;exitDx=0;exitDy=0;labelBackgroundColor=none;fontColor=default;" parent="1" edge="1">
          <mxGeometry relative="1" as="geometry">
            <mxPoint x="375" y="690" as="sourcePoint" />
            <mxPoint x="375" y="690" as="targetPoint" />
          </mxGeometry>
        </mxCell>
        <mxCell id="KZAd2MFrPLXnGe_yaYhW-6" value="" style="shape=trapezoid;perimeter=trapezoidPerimeter;whiteSpace=wrap;html=1;fixedSize=1;rotation=-180;labelBackgroundColor=none;size=20;" parent="1" vertex="1">
          <mxGeometry x="205" y="630" width="130" height="20" as="geometry" />
        </mxCell>
        <mxCell id="KZAd2MFrPLXnGe_yaYhW-14" value="" style="edgeStyle=orthogonalEdgeStyle;rounded=0;orthogonalLoop=1;jettySize=auto;html=1;entryX=0.5;entryY=0;entryDx=0;entryDy=0;startArrow=classic;startFill=1;labelBackgroundColor=none;fontColor=default;horizontal=0;verticalAlign=middle;exitX=0.171;exitY=0.003;exitDx=0;exitDy=0;exitPerimeter=0;" parent="1" source="KZAd2MFrPLXnGe_yaYhW-13" edge="1">
          <mxGeometry x="0.0023" relative="1" as="geometry">
            <mxPoint x="265" y="780.06" as="sourcePoint" />
            <mxPoint x="270" y="650" as="targetPoint" />
            <mxPoint as="offset" />
          </mxGeometry>
        </mxCell>
        <mxCell id="KZAd2MFrPLXnGe_yaYhW-13" value="CCU" style="rounded=0;whiteSpace=wrap;html=1;verticalAlign=middle;labelBackgroundColor=none;" parent="1" vertex="1">
          <mxGeometry x="110" y="780" width="940" height="60" as="geometry" />
        </mxCell>
        <mxCell id="KZAd2MFrPLXnGe_yaYhW-17" style="edgeStyle=orthogonalEdgeStyle;rounded=0;orthogonalLoop=1;jettySize=auto;html=1;exitX=0.5;exitY=1;exitDx=0;exitDy=0;entryX=0.5;entryY=0;entryDx=0;entryDy=0;endArrow=classic;endFill=1;dashed=1;labelBackgroundColor=none;fontColor=default;startArrow=box;startFill=0;fillColor=#fff2cc;strokeColor=#d6b656;" parent="1" source="KZAd2MFrPLXnGe_yaYhW-51" target="nXqxrG5YPyN84t3Gushb-4" edge="1">
          <mxGeometry relative="1" as="geometry">
            <mxPoint x="220" y="460" as="sourcePoint" />
          </mxGeometry>
        </mxCell>
        <mxCell id="KZAd2MFrPLXnGe_yaYhW-19" value="ace&lt;br&gt;monitor" style="rounded=1;whiteSpace=wrap;html=1;labelBackgroundColor=none;fillColor=#fff2cc;strokeColor=#d6b656;" parent="1" vertex="1">
          <mxGeometry x="140" y="180" width="60" height="60" as="geometry" />
        </mxCell>
        <mxCell id="KZAd2MFrPLXnGe_yaYhW-23" style="edgeStyle=orthogonalEdgeStyle;rounded=0;orthogonalLoop=1;jettySize=auto;html=1;exitX=0.5;exitY=1;exitDx=0;exitDy=0;endArrow=oval;endFill=0;dashed=1;labelBackgroundColor=none;fontColor=default;startArrow=box;startFill=0;labelBorderColor=none;fillColor=#fff2cc;strokeColor=#d6b656;" parent="1" source="KZAd2MFrPLXnGe_yaYhW-19" edge="1">
          <mxGeometry relative="1" as="geometry">
            <mxPoint x="-40" y="430" as="sourcePoint" />
            <mxPoint x="270" y="670" as="targetPoint" />
            <Array as="points">
              <mxPoint x="170" y="670" />
              <mxPoint x="270" y="670" />
            </Array>
          </mxGeometry>
        </mxCell>
        <mxCell id="KZAd2MFrPLXnGe_yaYhW-28" value="" style="edgeStyle=orthogonalEdgeStyle;rounded=0;orthogonalLoop=1;jettySize=auto;html=1;startArrow=classic;startFill=1;labelBackgroundColor=default;fontColor=default;horizontal=0;entryX=0.447;entryY=1.003;entryDx=0;entryDy=0;entryPerimeter=0;" parent="1" source="KZAd2MFrPLXnGe_yaYhW-26" target="KZAd2MFrPLXnGe_yaYhW-13" edge="1">
          <mxGeometry relative="1" as="geometry">
            <mxPoint x="313.34" y="934.44" as="sourcePoint" />
            <mxPoint x="310.02000000000004" y="820" as="targetPoint" />
          </mxGeometry>
        </mxCell>
        <mxCell id="KZAd2MFrPLXnGe_yaYhW-26" value="XBAR" style="rounded=0;whiteSpace=wrap;html=1;verticalAlign=middle;labelBackgroundColor=none;" parent="1" vertex="1">
          <mxGeometry x="470" y="890" width="120" height="60" as="geometry" />
        </mxCell>
        <mxCell id="KZAd2MFrPLXnGe_yaYhW-33" style="edgeStyle=orthogonalEdgeStyle;rounded=0;orthogonalLoop=1;jettySize=auto;html=1;exitX=0.25;exitY=1;exitDx=0;exitDy=0;endArrow=oval;endFill=0;dashed=1;labelBackgroundColor=none;fontColor=default;startArrow=box;startFill=0;fillColor=#fff2cc;strokeColor=#d6b656;" parent="1" source="KZAd2MFrPLXnGe_yaYhW-36" edge="1">
          <mxGeometry relative="1" as="geometry">
            <mxPoint x="-310" y="580" as="sourcePoint" />
            <mxPoint x="530" y="870" as="targetPoint" />
            <Array as="points">
              <mxPoint x="-75" y="870" />
            </Array>
          </mxGeometry>
        </mxCell>
        <mxCell id="KZAd2MFrPLXnGe_yaYhW-133" style="edgeStyle=orthogonalEdgeStyle;rounded=0;orthogonalLoop=1;jettySize=auto;html=1;exitX=0.5;exitY=1;exitDx=0;exitDy=0;startArrow=box;startFill=0;endArrow=none;endFill=0;dashed=1;fillColor=#fff2cc;strokeColor=#d6b656;" parent="1" source="KZAd2MFrPLXnGe_yaYhW-36" edge="1">
          <mxGeometry relative="1" as="geometry">
            <mxPoint x="630" y="680" as="targetPoint" />
            <Array as="points">
              <mxPoint x="-50" y="750" />
              <mxPoint x="630" y="750" />
              <mxPoint x="630" y="680" />
            </Array>
          </mxGeometry>
        </mxCell>
        <mxCell id="KZAd2MFrPLXnGe_yaYhW-136" style="edgeStyle=orthogonalEdgeStyle;rounded=0;orthogonalLoop=1;jettySize=auto;html=1;exitX=0.75;exitY=1;exitDx=0;exitDy=0;startArrow=box;startFill=0;endArrow=none;endFill=0;dashed=1;fillColor=#fff2cc;strokeColor=#d6b656;" parent="1" source="KZAd2MFrPLXnGe_yaYhW-36" edge="1">
          <mxGeometry relative="1" as="geometry">
            <mxPoint x="80" y="680" as="targetPoint" />
            <Array as="points">
              <mxPoint x="-25" y="680" />
            </Array>
          </mxGeometry>
        </mxCell>
        <mxCell id="KZAd2MFrPLXnGe_yaYhW-36" value="ace_ccu_monitor / scoreboard" style="rounded=1;whiteSpace=wrap;html=1;labelBackgroundColor=none;fillColor=#fff2cc;strokeColor=#d6b656;" parent="1" vertex="1">
          <mxGeometry x="-100" y="565" width="100" height="50" as="geometry" />
        </mxCell>
        <mxCell id="KZAd2MFrPLXnGe_yaYhW-59" style="edgeStyle=orthogonalEdgeStyle;rounded=0;orthogonalLoop=1;jettySize=auto;html=1;exitX=0.5;exitY=0;exitDx=0;exitDy=0;entryX=0.082;entryY=1.003;entryDx=0;entryDy=0;startArrow=diamond;startFill=0;labelBackgroundColor=none;fontColor=default;entryPerimeter=0;fillColor=#fff2cc;strokeColor=#d6b656;" parent="1" source="KZAd2MFrPLXnGe_yaYhW-39" target="KZAd2MFrPLXnGe_yaYhW-54" edge="1">
          <mxGeometry relative="1" as="geometry" />
        </mxCell>
        <mxCell id="KZAd2MFrPLXnGe_yaYhW-39" value="snoop&lt;br&gt;monitor" style="rounded=1;whiteSpace=wrap;html=1;labelBackgroundColor=none;fillColor=#fff2cc;strokeColor=#d6b656;" parent="1" vertex="1">
          <mxGeometry x="60" y="180" width="60" height="60" as="geometry" />
        </mxCell>
        <mxCell id="KZAd2MFrPLXnGe_yaYhW-43" style="edgeStyle=orthogonalEdgeStyle;rounded=0;orthogonalLoop=1;jettySize=auto;html=1;exitX=0.5;exitY=1;exitDx=0;exitDy=0;endArrow=oval;endFill=0;dashed=1;labelBackgroundColor=none;fontColor=default;startArrow=box;startFill=0;fillColor=#fff2cc;strokeColor=#d6b656;" parent="1" edge="1">
          <mxGeometry relative="1" as="geometry">
            <mxPoint x="80" y="240" as="sourcePoint" />
            <mxPoint x="270" y="680" as="targetPoint" />
            <Array as="points">
              <mxPoint x="80" y="680" />
            </Array>
          </mxGeometry>
        </mxCell>
        <mxCell id="KZAd2MFrPLXnGe_yaYhW-68" style="edgeStyle=orthogonalEdgeStyle;rounded=0;orthogonalLoop=1;jettySize=auto;html=1;endArrow=none;endFill=0;startArrow=box;startFill=0;dashed=1;labelBackgroundColor=none;fontColor=default;exitX=0.5;exitY=1;exitDx=0;exitDy=0;fillColor=#fff2cc;strokeColor=#d6b656;" parent="1" source="KZAd2MFrPLXnGe_yaYhW-46" edge="1">
          <mxGeometry relative="1" as="geometry">
            <mxPoint x="449.95" y="420" as="targetPoint" />
            <mxPoint x="609.95" y="300" as="sourcePoint" />
            <Array as="points">
              <mxPoint x="489.95" y="420" />
            </Array>
          </mxGeometry>
        </mxCell>
        <mxCell id="KZAd2MFrPLXnGe_yaYhW-44" value="dcache driver" style="rounded=1;whiteSpace=wrap;html=1;labelBackgroundColor=none;fillColor=#fff2cc;strokeColor=#d6b656;" parent="1" vertex="1">
          <mxGeometry x="419.95" y="320" width="60" height="60" as="geometry" />
        </mxCell>
        <mxCell id="KZAd2MFrPLXnGe_yaYhW-51" value="icache&lt;br&gt;driver" style="rounded=1;whiteSpace=wrap;html=1;labelBackgroundColor=none;fillColor=#fff2cc;strokeColor=#d6b656;" parent="1" vertex="1">
          <mxGeometry x="180" y="320" width="60" height="60" as="geometry" />
        </mxCell>
        <mxCell id="KZAd2MFrPLXnGe_yaYhW-79" value="amo + dcache" style="edgeStyle=orthogonalEdgeStyle;rounded=0;orthogonalLoop=1;jettySize=auto;html=1;exitX=0;exitY=0.5;exitDx=0;exitDy=0;exitPerimeter=0;entryX=0;entryY=0.5;entryDx=0;entryDy=0;startArrow=diamond;startFill=0;horizontal=0;labelBackgroundColor=default;fontColor=default;fillColor=#fff2cc;strokeColor=#d6b656;" parent="1" source="KZAd2MFrPLXnGe_yaYhW-54" target="KZAd2MFrPLXnGe_yaYhW-77" edge="1">
          <mxGeometry relative="1" as="geometry">
            <Array as="points">
              <mxPoint x="-150" y="60" />
              <mxPoint x="-150" y="970" />
            </Array>
          </mxGeometry>
        </mxCell>
        <mxCell id="KZAd2MFrPLXnGe_yaYhW-56" style="edgeStyle=orthogonalEdgeStyle;rounded=0;orthogonalLoop=1;jettySize=auto;html=1;exitX=0.5;exitY=0;exitDx=0;exitDy=0;entryX=0.41;entryY=1;entryDx=0;entryDy=0;startArrow=diamond;startFill=0;labelBackgroundColor=none;fontColor=default;entryPerimeter=0;fillColor=#fff2cc;strokeColor=#d6b656;" parent="1" source="KZAd2MFrPLXnGe_yaYhW-46" edge="1">
          <mxGeometry relative="1" as="geometry">
            <mxPoint x="489.95" y="110" as="targetPoint" />
          </mxGeometry>
        </mxCell>
        <mxCell id="KZAd2MFrPLXnGe_yaYhW-64" style="edgeStyle=orthogonalEdgeStyle;rounded=0;orthogonalLoop=1;jettySize=auto;html=1;dashed=1;startArrow=box;startFill=0;endArrow=none;endFill=0;labelBackgroundColor=none;fontColor=default;exitX=0.5;exitY=1;exitDx=0;exitDy=0;fillColor=#fff2cc;strokeColor=#d6b656;" parent="1" source="KZAd2MFrPLXnGe_yaYhW-65" edge="1">
          <mxGeometry relative="1" as="geometry">
            <mxPoint x="669.95" y="420" as="sourcePoint" />
            <mxPoint x="369.95" y="420" as="targetPoint" />
            <Array as="points">
              <mxPoint x="409.95" y="420" />
            </Array>
          </mxGeometry>
        </mxCell>
        <mxCell id="KZAd2MFrPLXnGe_yaYhW-63" value="dcache&amp;nbsp; mgmt driver" style="rounded=1;whiteSpace=wrap;html=1;labelBackgroundColor=none;fillColor=#fff2cc;strokeColor=#d6b656;" parent="1" vertex="1">
          <mxGeometry x="339.95" y="320" width="60" height="60" as="geometry" />
        </mxCell>
        <mxCell id="KZAd2MFrPLXnGe_yaYhW-65" value="dcache mgmt&amp;nbsp; monitor" style="rounded=1;whiteSpace=wrap;html=1;labelBackgroundColor=none;fillColor=#fff2cc;strokeColor=#d6b656;" parent="1" vertex="1">
          <mxGeometry x="379.95" y="180" width="60" height="60" as="geometry" />
        </mxCell>
        <mxCell id="KZAd2MFrPLXnGe_yaYhW-46" value="dcache monitor" style="rounded=1;whiteSpace=wrap;html=1;labelBackgroundColor=none;fillColor=#fff2cc;strokeColor=#d6b656;" parent="1" vertex="1">
          <mxGeometry x="459.95" y="180" width="60" height="60" as="geometry" />
        </mxCell>
        <mxCell id="KZAd2MFrPLXnGe_yaYhW-72" style="edgeStyle=orthogonalEdgeStyle;rounded=0;orthogonalLoop=1;jettySize=auto;html=1;exitX=0.5;exitY=1;exitDx=0;exitDy=0;entryX=0.5;entryY=0;entryDx=0;entryDy=0;startArrow=classic;startFill=1;labelBackgroundColor=none;fontColor=default;" parent="1" source="KZAd2MFrPLXnGe_yaYhW-70" target="KZAd2MFrPLXnGe_yaYhW-71" edge="1">
          <mxGeometry relative="1" as="geometry" />
        </mxCell>
        <mxCell id="KZAd2MFrPLXnGe_yaYhW-74" style="edgeStyle=orthogonalEdgeStyle;rounded=0;orthogonalLoop=1;jettySize=auto;html=1;exitX=1;exitY=0.5;exitDx=0;exitDy=0;entryX=0;entryY=0.5;entryDx=0;entryDy=0;startArrow=classic;startFill=1;labelBackgroundColor=none;fontColor=default;" parent="1" source="KZAd2MFrPLXnGe_yaYhW-70" target="KZAd2MFrPLXnGe_yaYhW-73" edge="1">
          <mxGeometry relative="1" as="geometry" />
        </mxCell>
        <mxCell id="KZAd2MFrPLXnGe_yaYhW-70" value="LLC" style="rounded=0;whiteSpace=wrap;html=1;verticalAlign=middle;labelBackgroundColor=none;" parent="1" vertex="1">
          <mxGeometry x="160" y="890" width="120" height="60" as="geometry" />
        </mxCell>
        <mxCell id="KZAd2MFrPLXnGe_yaYhW-71" value="DRAM model" style="rounded=0;whiteSpace=wrap;html=1;verticalAlign=middle;labelBackgroundColor=none;" parent="1" vertex="1">
          <mxGeometry x="160" y="990" width="120" height="60" as="geometry" />
        </mxCell>
        <mxCell id="KZAd2MFrPLXnGe_yaYhW-75" style="edgeStyle=orthogonalEdgeStyle;rounded=0;orthogonalLoop=1;jettySize=auto;html=1;exitX=1;exitY=0.5;exitDx=0;exitDy=0;entryX=0;entryY=0.5;entryDx=0;entryDy=0;startArrow=classic;startFill=1;labelBackgroundColor=none;fontColor=default;" parent="1" source="KZAd2MFrPLXnGe_yaYhW-73" target="KZAd2MFrPLXnGe_yaYhW-26" edge="1">
          <mxGeometry relative="1" as="geometry" />
        </mxCell>
        <mxCell id="KZAd2MFrPLXnGe_yaYhW-73" value="atomics" style="rounded=0;whiteSpace=wrap;html=1;verticalAlign=middle;labelBackgroundColor=none;" parent="1" vertex="1">
          <mxGeometry x="310" y="890" width="120" height="60" as="geometry" />
        </mxCell>
        <mxCell id="KZAd2MFrPLXnGe_yaYhW-78" style="edgeStyle=orthogonalEdgeStyle;rounded=0;orthogonalLoop=1;jettySize=auto;html=1;exitX=1;exitY=0.5;exitDx=0;exitDy=0;dashed=1;startArrow=box;startFill=0;endArrow=oval;endFill=0;labelBackgroundColor=none;fontColor=default;fillColor=#fff2cc;strokeColor=#d6b656;" parent="1" source="KZAd2MFrPLXnGe_yaYhW-77" edge="1">
          <mxGeometry relative="1" as="geometry">
            <mxPoint x="220" y="970" as="targetPoint" />
          </mxGeometry>
        </mxCell>
        <mxCell id="KZAd2MFrPLXnGe_yaYhW-77" value="dcache checker" style="rounded=1;whiteSpace=wrap;html=1;labelBackgroundColor=none;fillColor=#fff2cc;strokeColor=#d6b656;" parent="1" vertex="1">
          <mxGeometry x="-120" y="940" width="120" height="60" as="geometry" />
        </mxCell>
        <mxCell id="KZAd2MFrPLXnGe_yaYhW-80" value="SRAM" style="rounded=0;whiteSpace=wrap;html=1;labelBackgroundColor=none;horizontal=0;" parent="1" vertex="1">
          <mxGeometry x="439.95" y="540" width="30" height="50" as="geometry" />
        </mxCell>
        <mxCell id="KZAd2MFrPLXnGe_yaYhW-81" style="edgeStyle=orthogonalEdgeStyle;rounded=0;orthogonalLoop=1;jettySize=auto;html=1;startArrow=oval;startFill=0;endArrow=box;endFill=0;dashed=1;exitX=1;exitY=0.5;exitDx=0;exitDy=0;labelBackgroundColor=none;fontColor=default;fillColor=#fff2cc;strokeColor=#d6b656;" parent="1" source="KZAd2MFrPLXnGe_yaYhW-80" edge="1">
          <mxGeometry relative="1" as="geometry">
            <mxPoint x="529.95" y="110" as="targetPoint" />
            <mxPoint x="409.94999999999976" y="629.9999999999999" as="sourcePoint" />
            <Array as="points">
              <mxPoint x="529.95" y="565" />
            </Array>
          </mxGeometry>
        </mxCell>
        <mxCell id="KZAd2MFrPLXnGe_yaYhW-83" style="edgeStyle=orthogonalEdgeStyle;rounded=0;orthogonalLoop=1;jettySize=auto;html=1;exitX=0.5;exitY=0;exitDx=0;exitDy=0;entryX=0.33;entryY=1;entryDx=0;entryDy=0;entryPerimeter=0;startArrow=diamond;startFill=0;labelBackgroundColor=none;fontColor=default;fillColor=#fff2cc;strokeColor=#d6b656;" parent="1" source="KZAd2MFrPLXnGe_yaYhW-65" edge="1">
          <mxGeometry relative="1" as="geometry">
            <mxPoint x="409.95" y="110" as="targetPoint" />
          </mxGeometry>
        </mxCell>
        <mxCell id="KZAd2MFrPLXnGe_yaYhW-86" style="edgeStyle=orthogonalEdgeStyle;rounded=0;orthogonalLoop=1;jettySize=auto;html=1;exitX=0.5;exitY=1;exitDx=0;exitDy=0;entryX=0.5;entryY=0;entryDx=0;entryDy=0;startArrow=diamond;startFill=0;labelBackgroundColor=none;fontColor=default;fillColor=#dae8fc;strokeColor=#6c8ebf;" parent="1" source="KZAd2MFrPLXnGe_yaYhW-85" target="KZAd2MFrPLXnGe_yaYhW-44" edge="1">
          <mxGeometry relative="1" as="geometry" />
        </mxCell>
        <mxCell id="KZAd2MFrPLXnGe_yaYhW-85" value="test" style="rounded=1;whiteSpace=wrap;html=1;labelBackgroundColor=none;fillColor=#dae8fc;strokeColor=#6c8ebf;" parent="1" vertex="1">
          <mxGeometry x="429.95" y="270" width="40" height="20" as="geometry" />
        </mxCell>
        <mxCell id="KZAd2MFrPLXnGe_yaYhW-87" style="edgeStyle=orthogonalEdgeStyle;rounded=0;orthogonalLoop=1;jettySize=auto;html=1;exitX=0.5;exitY=1;exitDx=0;exitDy=0;startArrow=diamond;startFill=0;entryX=0.5;entryY=0;entryDx=0;entryDy=0;labelBackgroundColor=none;fontColor=default;fillColor=#dae8fc;strokeColor=#6c8ebf;" parent="1" source="KZAd2MFrPLXnGe_yaYhW-88" target="KZAd2MFrPLXnGe_yaYhW-63" edge="1">
          <mxGeometry relative="1" as="geometry">
            <mxPoint x="319.95" y="310" as="targetPoint" />
          </mxGeometry>
        </mxCell>
        <mxCell id="KZAd2MFrPLXnGe_yaYhW-88" value="test" style="rounded=1;whiteSpace=wrap;html=1;labelBackgroundColor=none;fillColor=#dae8fc;strokeColor=#6c8ebf;" parent="1" vertex="1">
          <mxGeometry x="349.95" y="270" width="40" height="20" as="geometry" />
        </mxCell>
        <mxCell id="KZAd2MFrPLXnGe_yaYhW-89" style="edgeStyle=orthogonalEdgeStyle;rounded=0;orthogonalLoop=1;jettySize=auto;html=1;exitX=0.5;exitY=1;exitDx=0;exitDy=0;entryX=0.5;entryY=0;entryDx=0;entryDy=0;startArrow=box;startFill=0;dashed=1;labelBackgroundColor=none;fontColor=default;fillColor=#fff2cc;strokeColor=#d6b656;" parent="1" source="KZAd2MFrPLXnGe_yaYhW-63" target="KZAd2MFrPLXnGe_yaYhW-4" edge="1">
          <mxGeometry relative="1" as="geometry">
            <Array as="points" />
          </mxGeometry>
        </mxCell>
        <mxCell id="KZAd2MFrPLXnGe_yaYhW-90" style="edgeStyle=orthogonalEdgeStyle;rounded=0;orthogonalLoop=1;jettySize=auto;html=1;exitX=0.5;exitY=1;exitDx=0;exitDy=0;startArrow=diamond;startFill=0;entryX=0.5;entryY=0;entryDx=0;entryDy=0;labelBackgroundColor=none;fontColor=default;fillColor=#dae8fc;strokeColor=#6c8ebf;" parent="1" source="KZAd2MFrPLXnGe_yaYhW-91" target="KZAd2MFrPLXnGe_yaYhW-51" edge="1">
          <mxGeometry relative="1" as="geometry">
            <mxPoint x="240" y="310" as="targetPoint" />
          </mxGeometry>
        </mxCell>
        <mxCell id="KZAd2MFrPLXnGe_yaYhW-91" value="test" style="rounded=1;whiteSpace=wrap;html=1;labelBackgroundColor=none;fillColor=#dae8fc;strokeColor=#6c8ebf;" parent="1" vertex="1">
          <mxGeometry x="190" y="270" width="40" height="20" as="geometry" />
        </mxCell>
        <mxCell id="KZAd2MFrPLXnGe_yaYhW-92" style="edgeStyle=orthogonalEdgeStyle;rounded=0;orthogonalLoop=1;jettySize=auto;html=1;exitX=0.5;exitY=0;exitDx=0;exitDy=0;startArrow=diamond;startFill=0;labelBackgroundColor=none;fontColor=default;entryX=0.67;entryY=1;entryDx=0;entryDy=0;entryPerimeter=0;fillColor=#fff2cc;strokeColor=#d6b656;" parent="1" source="KZAd2MFrPLXnGe_yaYhW-103" edge="1">
          <mxGeometry relative="1" as="geometry">
            <mxPoint x="710" y="110" as="targetPoint" />
          </mxGeometry>
        </mxCell>
        <mxCell id="KZAd2MFrPLXnGe_yaYhW-93" value="cva6 (stripped)" style="rounded=0;whiteSpace=wrap;html=1;horizontal=1;verticalAlign=bottom;labelBackgroundColor=none;align=right;" parent="1" vertex="1">
          <mxGeometry x="670" y="470" width="380" height="250" as="geometry" />
        </mxCell>
        <mxCell id="KZAd2MFrPLXnGe_yaYhW-94" value="cache subsystem" style="rounded=0;whiteSpace=wrap;html=1;verticalAlign=bottom;labelBackgroundColor=none;align=right;" parent="1" vertex="1">
          <mxGeometry x="690" y="500" width="340" height="190" as="geometry" />
        </mxCell>
        <mxCell id="KZAd2MFrPLXnGe_yaYhW-95" style="edgeStyle=orthogonalEdgeStyle;rounded=0;orthogonalLoop=1;jettySize=auto;html=1;exitX=0.5;exitY=1;exitDx=0;exitDy=0;entryX=0.75;entryY=1;entryDx=0;entryDy=0;startArrow=classic;startFill=1;labelBackgroundColor=none;fontColor=default;" parent="1" source="KZAd2MFrPLXnGe_yaYhW-96" target="KZAd2MFrPLXnGe_yaYhW-101" edge="1">
          <mxGeometry relative="1" as="geometry">
            <mxPoint x="789" y="610" as="targetPoint" />
          </mxGeometry>
        </mxCell>
        <mxCell id="KZAd2MFrPLXnGe_yaYhW-96" value="I$" style="rounded=0;whiteSpace=wrap;html=1;labelBackgroundColor=none;verticalAlign=top;" parent="1" vertex="1">
          <mxGeometry x="720" y="530" width="60" height="60" as="geometry" />
        </mxCell>
        <mxCell id="KZAd2MFrPLXnGe_yaYhW-97" style="edgeStyle=orthogonalEdgeStyle;rounded=0;orthogonalLoop=1;jettySize=auto;html=1;exitX=0.5;exitY=1;exitDx=0;exitDy=0;entryX=0.25;entryY=1;entryDx=0;entryDy=0;startArrow=classic;startFill=1;labelBackgroundColor=none;fontColor=default;" parent="1" source="KZAd2MFrPLXnGe_yaYhW-99" target="KZAd2MFrPLXnGe_yaYhW-101" edge="1">
          <mxGeometry relative="1" as="geometry" />
        </mxCell>
        <mxCell id="KZAd2MFrPLXnGe_yaYhW-98" style="edgeStyle=orthogonalEdgeStyle;rounded=0;orthogonalLoop=1;jettySize=auto;html=1;entryX=0.5;entryY=1;entryDx=0;entryDy=0;endArrow=box;endFill=0;startArrow=classic;startFill=1;dashed=1;labelBackgroundColor=none;fontColor=default;exitX=0.834;exitY=0.001;exitDx=0;exitDy=0;exitPerimeter=0;fillColor=#fff2cc;strokeColor=#d6b656;" parent="1" target="KZAd2MFrPLXnGe_yaYhW-109" edge="1">
          <mxGeometry relative="1" as="geometry">
            <mxPoint x="990.0799999999995" y="530.4599999999999" as="sourcePoint" />
            <mxPoint x="1020" y="400.4" as="targetPoint" />
            <Array as="points">
              <mxPoint x="990" y="460.4" />
              <mxPoint x="990" y="460.4" />
            </Array>
          </mxGeometry>
        </mxCell>
        <mxCell id="KZAd2MFrPLXnGe_yaYhW-99" value="D$" style="rounded=0;whiteSpace=wrap;html=1;labelBackgroundColor=none;verticalAlign=top;" parent="1" vertex="1">
          <mxGeometry x="810" y="530" width="200" height="60" as="geometry" />
        </mxCell>
        <mxCell id="KZAd2MFrPLXnGe_yaYhW-100" style="edgeStyle=orthogonalEdgeStyle;rounded=0;orthogonalLoop=1;jettySize=auto;html=1;exitX=0.5;exitY=1;exitDx=0;exitDy=0;labelBackgroundColor=none;fontColor=default;" parent="1" source="KZAd2MFrPLXnGe_yaYhW-94" target="KZAd2MFrPLXnGe_yaYhW-94" edge="1">
          <mxGeometry relative="1" as="geometry" />
        </mxCell>
        <mxCell id="KZAd2MFrPLXnGe_yaYhW-101" value="" style="shape=trapezoid;perimeter=trapezoidPerimeter;whiteSpace=wrap;html=1;fixedSize=1;rotation=-180;labelBackgroundColor=none;size=20;" parent="1" vertex="1">
          <mxGeometry x="745" y="630" width="130" height="20" as="geometry" />
        </mxCell>
        <mxCell id="KZAd2MFrPLXnGe_yaYhW-102" style="edgeStyle=orthogonalEdgeStyle;rounded=0;orthogonalLoop=1;jettySize=auto;html=1;exitX=0.5;exitY=1;exitDx=0;exitDy=0;entryX=0.5;entryY=0;entryDx=0;entryDy=0;endArrow=classic;endFill=1;dashed=1;labelBackgroundColor=none;fontColor=default;startArrow=box;startFill=0;fillColor=#fff2cc;strokeColor=#d6b656;" parent="1" source="KZAd2MFrPLXnGe_yaYhW-110" target="KZAd2MFrPLXnGe_yaYhW-96" edge="1">
          <mxGeometry relative="1" as="geometry">
            <mxPoint x="760" y="460" as="sourcePoint" />
          </mxGeometry>
        </mxCell>
        <mxCell id="KZAd2MFrPLXnGe_yaYhW-103" value="ace&lt;br&gt;monitor" style="rounded=1;whiteSpace=wrap;html=1;labelBackgroundColor=none;fillColor=#fff2cc;strokeColor=#d6b656;" parent="1" vertex="1">
          <mxGeometry x="680" y="180" width="60" height="60" as="geometry" />
        </mxCell>
        <mxCell id="KZAd2MFrPLXnGe_yaYhW-104" style="edgeStyle=orthogonalEdgeStyle;rounded=0;orthogonalLoop=1;jettySize=auto;html=1;exitX=0.5;exitY=1;exitDx=0;exitDy=0;endArrow=oval;endFill=0;dashed=1;labelBackgroundColor=none;fontColor=default;startArrow=box;startFill=0;labelBorderColor=none;fillColor=#fff2cc;strokeColor=#d6b656;" parent="1" source="KZAd2MFrPLXnGe_yaYhW-103" edge="1">
          <mxGeometry relative="1" as="geometry">
            <mxPoint x="500" y="430" as="sourcePoint" />
            <mxPoint x="810" y="670" as="targetPoint" />
            <Array as="points">
              <mxPoint x="710" y="670" />
            </Array>
          </mxGeometry>
        </mxCell>
        <mxCell id="KZAd2MFrPLXnGe_yaYhW-105" style="edgeStyle=orthogonalEdgeStyle;rounded=0;orthogonalLoop=1;jettySize=auto;html=1;exitX=0.5;exitY=0;exitDx=0;exitDy=0;entryX=0.59;entryY=1.002;entryDx=0;entryDy=0;startArrow=diamond;startFill=0;labelBackgroundColor=none;fontColor=default;entryPerimeter=0;fillColor=#fff2cc;strokeColor=#d6b656;" parent="1" source="KZAd2MFrPLXnGe_yaYhW-106" edge="1">
          <mxGeometry relative="1" as="geometry">
            <mxPoint x="630" y="110.19999999999982" as="targetPoint" />
          </mxGeometry>
        </mxCell>
        <mxCell id="KZAd2MFrPLXnGe_yaYhW-106" value="snoop&lt;br&gt;monitor" style="rounded=1;whiteSpace=wrap;html=1;labelBackgroundColor=none;fillColor=#fff2cc;strokeColor=#d6b656;" parent="1" vertex="1">
          <mxGeometry x="600" y="180" width="60" height="60" as="geometry" />
        </mxCell>
        <mxCell id="KZAd2MFrPLXnGe_yaYhW-107" style="edgeStyle=orthogonalEdgeStyle;rounded=0;orthogonalLoop=1;jettySize=auto;html=1;endArrow=oval;endFill=0;dashed=1;labelBackgroundColor=none;fontColor=default;startArrow=box;startFill=0;exitX=0.5;exitY=1;exitDx=0;exitDy=0;fillColor=#fff2cc;strokeColor=#d6b656;" parent="1" source="KZAd2MFrPLXnGe_yaYhW-106" edge="1">
          <mxGeometry relative="1" as="geometry">
            <mxPoint x="640" y="270" as="sourcePoint" />
            <mxPoint x="810" y="680" as="targetPoint" />
            <Array as="points">
              <mxPoint x="630" y="680" />
            </Array>
          </mxGeometry>
        </mxCell>
        <mxCell id="KZAd2MFrPLXnGe_yaYhW-108" style="edgeStyle=orthogonalEdgeStyle;rounded=0;orthogonalLoop=1;jettySize=auto;html=1;endArrow=none;endFill=0;startArrow=box;startFill=0;dashed=1;labelBackgroundColor=none;fontColor=default;exitX=0.5;exitY=1;exitDx=0;exitDy=0;fillColor=#fff2cc;strokeColor=#d6b656;" parent="1" source="KZAd2MFrPLXnGe_yaYhW-115" edge="1">
          <mxGeometry relative="1" as="geometry">
            <mxPoint x="990" y="420.4" as="targetPoint" />
            <mxPoint x="1150" y="300.4" as="sourcePoint" />
            <Array as="points">
              <mxPoint x="1030" y="420.4" />
            </Array>
          </mxGeometry>
        </mxCell>
        <mxCell id="KZAd2MFrPLXnGe_yaYhW-109" value="dcache driver" style="rounded=1;whiteSpace=wrap;html=1;labelBackgroundColor=none;fillColor=#fff2cc;strokeColor=#d6b656;" parent="1" vertex="1">
          <mxGeometry x="960" y="320.4" width="60" height="60" as="geometry" />
        </mxCell>
        <mxCell id="KZAd2MFrPLXnGe_yaYhW-110" value="icache&lt;br&gt;driver" style="rounded=1;whiteSpace=wrap;html=1;labelBackgroundColor=none;fillColor=#fff2cc;strokeColor=#d6b656;" parent="1" vertex="1">
          <mxGeometry x="720" y="320" width="60" height="60" as="geometry" />
        </mxCell>
        <mxCell id="KZAd2MFrPLXnGe_yaYhW-111" style="edgeStyle=orthogonalEdgeStyle;rounded=0;orthogonalLoop=1;jettySize=auto;html=1;exitX=0.5;exitY=0;exitDx=0;exitDy=0;entryX=0.91;entryY=1.002;entryDx=0;entryDy=0;startArrow=diamond;startFill=0;labelBackgroundColor=none;fontColor=default;entryPerimeter=0;fillColor=#fff2cc;strokeColor=#d6b656;" parent="1" source="KZAd2MFrPLXnGe_yaYhW-115" edge="1">
          <mxGeometry relative="1" as="geometry">
            <mxPoint x="1030.000000000001" y="110.59999999999982" as="targetPoint" />
          </mxGeometry>
        </mxCell>
        <mxCell id="KZAd2MFrPLXnGe_yaYhW-112" style="edgeStyle=orthogonalEdgeStyle;rounded=0;orthogonalLoop=1;jettySize=auto;html=1;dashed=1;startArrow=box;startFill=0;endArrow=none;endFill=0;labelBackgroundColor=none;fontColor=default;exitX=0.5;exitY=1;exitDx=0;exitDy=0;fillColor=#fff2cc;strokeColor=#d6b656;" parent="1" source="KZAd2MFrPLXnGe_yaYhW-114" edge="1">
          <mxGeometry relative="1" as="geometry">
            <mxPoint x="1210" y="420.4" as="sourcePoint" />
            <mxPoint x="910" y="420.4" as="targetPoint" />
            <Array as="points">
              <mxPoint x="950" y="420.4" />
            </Array>
          </mxGeometry>
        </mxCell>
        <mxCell id="KZAd2MFrPLXnGe_yaYhW-113" value="dcache&amp;nbsp; mgmt driver" style="rounded=1;whiteSpace=wrap;html=1;labelBackgroundColor=none;fillColor=#fff2cc;strokeColor=#d6b656;" parent="1" vertex="1">
          <mxGeometry x="880" y="320.4" width="60" height="60" as="geometry" />
        </mxCell>
        <mxCell id="KZAd2MFrPLXnGe_yaYhW-114" value="dcache mgmt&amp;nbsp; monitor" style="rounded=1;whiteSpace=wrap;html=1;labelBackgroundColor=none;fillColor=#fff2cc;strokeColor=#d6b656;" parent="1" vertex="1">
          <mxGeometry x="920" y="180.4" width="60" height="60" as="geometry" />
        </mxCell>
        <mxCell id="KZAd2MFrPLXnGe_yaYhW-115" value="dcache monitor" style="rounded=1;whiteSpace=wrap;html=1;labelBackgroundColor=none;fillColor=#fff2cc;strokeColor=#d6b656;" parent="1" vertex="1">
          <mxGeometry x="1000" y="180.4" width="60" height="60" as="geometry" />
        </mxCell>
        <mxCell id="KZAd2MFrPLXnGe_yaYhW-116" value="SRAM" style="rounded=0;whiteSpace=wrap;html=1;labelBackgroundColor=none;horizontal=0;" parent="1" vertex="1">
          <mxGeometry x="980" y="540" width="30" height="50" as="geometry" />
        </mxCell>
        <mxCell id="KZAd2MFrPLXnGe_yaYhW-118" style="edgeStyle=orthogonalEdgeStyle;rounded=0;orthogonalLoop=1;jettySize=auto;html=1;exitX=0.5;exitY=0;exitDx=0;exitDy=0;entryX=0.83;entryY=0.996;entryDx=0;entryDy=0;entryPerimeter=0;startArrow=diamond;startFill=0;labelBackgroundColor=none;fontColor=default;fillColor=#fff2cc;strokeColor=#d6b656;" parent="1" source="KZAd2MFrPLXnGe_yaYhW-114" edge="1">
          <mxGeometry relative="1" as="geometry">
            <mxPoint x="950.0000000000005" y="109.99999999999991" as="targetPoint" />
          </mxGeometry>
        </mxCell>
        <mxCell id="KZAd2MFrPLXnGe_yaYhW-119" style="edgeStyle=orthogonalEdgeStyle;rounded=0;orthogonalLoop=1;jettySize=auto;html=1;exitX=0.5;exitY=1;exitDx=0;exitDy=0;entryX=0.5;entryY=0;entryDx=0;entryDy=0;startArrow=diamond;startFill=0;labelBackgroundColor=none;fontColor=default;fillColor=#dae8fc;strokeColor=#6c8ebf;" parent="1" source="KZAd2MFrPLXnGe_yaYhW-120" target="KZAd2MFrPLXnGe_yaYhW-109" edge="1">
          <mxGeometry relative="1" as="geometry" />
        </mxCell>
        <mxCell id="KZAd2MFrPLXnGe_yaYhW-120" value="test" style="rounded=1;whiteSpace=wrap;html=1;labelBackgroundColor=none;fillColor=#dae8fc;strokeColor=#6c8ebf;" parent="1" vertex="1">
          <mxGeometry x="970" y="270.4" width="40" height="20" as="geometry" />
        </mxCell>
        <mxCell id="KZAd2MFrPLXnGe_yaYhW-121" style="edgeStyle=orthogonalEdgeStyle;rounded=0;orthogonalLoop=1;jettySize=auto;html=1;exitX=0.5;exitY=1;exitDx=0;exitDy=0;startArrow=diamond;startFill=0;entryX=0.5;entryY=0;entryDx=0;entryDy=0;labelBackgroundColor=none;fontColor=default;fillColor=#dae8fc;strokeColor=#6c8ebf;" parent="1" source="KZAd2MFrPLXnGe_yaYhW-122" target="KZAd2MFrPLXnGe_yaYhW-113" edge="1">
          <mxGeometry relative="1" as="geometry">
            <mxPoint x="860" y="310.4" as="targetPoint" />
          </mxGeometry>
        </mxCell>
        <mxCell id="KZAd2MFrPLXnGe_yaYhW-122" value="test" style="rounded=1;whiteSpace=wrap;html=1;labelBackgroundColor=none;fillColor=#dae8fc;strokeColor=#6c8ebf;" parent="1" vertex="1">
          <mxGeometry x="890" y="270.4" width="40" height="20" as="geometry" />
        </mxCell>
        <mxCell id="KZAd2MFrPLXnGe_yaYhW-123" style="edgeStyle=orthogonalEdgeStyle;rounded=0;orthogonalLoop=1;jettySize=auto;html=1;exitX=0.5;exitY=1;exitDx=0;exitDy=0;entryX=0.169;entryY=0;entryDx=0;entryDy=0;entryPerimeter=0;startArrow=box;startFill=0;dashed=1;labelBackgroundColor=none;fontColor=default;fillColor=#fff2cc;strokeColor=#d6b656;" parent="1" source="KZAd2MFrPLXnGe_yaYhW-113" edge="1">
          <mxGeometry relative="1" as="geometry">
            <mxPoint x="910.2799999999997" y="530.4" as="targetPoint" />
          </mxGeometry>
        </mxCell>
        <mxCell id="KZAd2MFrPLXnGe_yaYhW-124" style="edgeStyle=orthogonalEdgeStyle;rounded=0;orthogonalLoop=1;jettySize=auto;html=1;exitX=0.5;exitY=1;exitDx=0;exitDy=0;startArrow=diamond;startFill=0;entryX=0.5;entryY=0;entryDx=0;entryDy=0;labelBackgroundColor=none;fontColor=default;fillColor=#dae8fc;strokeColor=#6c8ebf;" parent="1" source="KZAd2MFrPLXnGe_yaYhW-125" target="KZAd2MFrPLXnGe_yaYhW-110" edge="1">
          <mxGeometry relative="1" as="geometry">
            <mxPoint x="780" y="310" as="targetPoint" />
          </mxGeometry>
        </mxCell>
        <mxCell id="KZAd2MFrPLXnGe_yaYhW-125" value="test" style="rounded=1;whiteSpace=wrap;html=1;labelBackgroundColor=none;fillColor=#dae8fc;strokeColor=#6c8ebf;" parent="1" vertex="1">
          <mxGeometry x="730" y="270" width="40" height="20" as="geometry" />
        </mxCell>
        <mxCell id="KZAd2MFrPLXnGe_yaYhW-127" style="edgeStyle=orthogonalEdgeStyle;rounded=0;orthogonalLoop=1;jettySize=auto;html=1;exitX=0;exitY=0.25;exitDx=0;exitDy=0;entryX=1;entryY=0.25;entryDx=0;entryDy=0;startArrow=classic;startFill=1;labelBackgroundColor=none;fontColor=default;" parent="1" source="KZAd2MFrPLXnGe_yaYhW-126" target="KZAd2MFrPLXnGe_yaYhW-26" edge="1">
          <mxGeometry relative="1" as="geometry" />
        </mxCell>
        <mxCell id="KZAd2MFrPLXnGe_yaYhW-128" style="edgeStyle=orthogonalEdgeStyle;rounded=0;orthogonalLoop=1;jettySize=auto;html=1;exitX=0;exitY=0.5;exitDx=0;exitDy=0;entryX=1;entryY=0.5;entryDx=0;entryDy=0;startArrow=classic;startFill=1;labelBackgroundColor=none;fontColor=default;" parent="1" source="KZAd2MFrPLXnGe_yaYhW-126" target="KZAd2MFrPLXnGe_yaYhW-26" edge="1">
          <mxGeometry relative="1" as="geometry" />
        </mxCell>
        <mxCell id="KZAd2MFrPLXnGe_yaYhW-117" style="edgeStyle=orthogonalEdgeStyle;rounded=0;orthogonalLoop=1;jettySize=auto;html=1;startArrow=oval;startFill=0;endArrow=box;endFill=0;dashed=1;exitX=1;exitY=0.5;exitDx=0;exitDy=0;labelBackgroundColor=none;fontColor=default;fillColor=#fff2cc;strokeColor=#d6b656;entryX=0.973;entryY=1.001;entryDx=0;entryDy=0;entryPerimeter=0;" parent="1" source="KZAd2MFrPLXnGe_yaYhW-116" target="KZAd2MFrPLXnGe_yaYhW-54" edge="1">
          <mxGeometry relative="1" as="geometry">
            <mxPoint x="855" y="111" as="targetPoint" />
            <mxPoint x="869.9999999999998" y="629.9999999999999" as="sourcePoint" />
            <Array as="points">
              <mxPoint x="1070" y="565" />
              <mxPoint x="1070" y="110" />
            </Array>
          </mxGeometry>
        </mxCell>
        <mxCell id="KZAd2MFrPLXnGe_yaYhW-129" style="edgeStyle=orthogonalEdgeStyle;rounded=0;orthogonalLoop=1;jettySize=auto;html=1;exitX=0;exitY=0.75;exitDx=0;exitDy=0;entryX=1;entryY=0.75;entryDx=0;entryDy=0;startArrow=classic;startFill=1;labelBackgroundColor=none;fontColor=default;" parent="1" source="KZAd2MFrPLXnGe_yaYhW-126" target="KZAd2MFrPLXnGe_yaYhW-26" edge="1">
          <mxGeometry relative="1" as="geometry" />
        </mxCell>
        <mxCell id="KZAd2MFrPLXnGe_yaYhW-126" value="Peripherals" style="rounded=0;whiteSpace=wrap;html=1;verticalAlign=middle;labelBackgroundColor=none;" parent="1" vertex="1">
          <mxGeometry x="660" y="890" width="120" height="60" as="geometry" />
        </mxCell>
        <mxCell id="KZAd2MFrPLXnGe_yaYhW-132" style="edgeStyle=orthogonalEdgeStyle;rounded=0;orthogonalLoop=1;jettySize=auto;html=1;exitX=0.5;exitY=0;exitDx=0;exitDy=0;entryX=0.8;entryY=-0.002;entryDx=0;entryDy=0;entryPerimeter=0;startArrow=classic;startFill=1;" parent="1" source="KZAd2MFrPLXnGe_yaYhW-101" edge="1">
          <mxGeometry relative="1" as="geometry">
            <Array as="points">
              <mxPoint x="810" y="670" />
              <mxPoint x="810" y="670" />
            </Array>
            <mxPoint x="810.0000000000005" y="779.8799999999997" as="targetPoint" />
          </mxGeometry>
        </mxCell>
        <mxCell id="KZAd2MFrPLXnGe_yaYhW-54" value="std_cache_scoreboard" style="rounded=1;whiteSpace=wrap;html=1;arcSize=13;points=[[0,0,0,0,0],[0,0.25,0,0,0],[0,0.5,0,0,0],[0,0.75,0,0,0],[0,1,0,0,0],[0.2,1,0,0,0],[0.25,0,0,0,0],[0.25,1,0,0,0],[0.5,0,0,0,0],[0.5,1,0,0,0],[0.6,1,0,0,0],[0.75,0,0,0,0],[0.75,1,0,0,0],[1,0,0,0,0],[1,0.25,0,0,0],[1,0.5,0,0,0],[1,0.75,0,0,0],[1,1,0,0,0]];labelBackgroundColor=none;fillColor=#fff2cc;strokeColor=#d6b656;" parent="1" vertex="1">
          <mxGeometry y="10" width="1100" height="100" as="geometry" />
        </mxCell>
        <mxCell id="mfK6N7BSNp6gK4buJ0qX-1" style="edgeStyle=orthogonalEdgeStyle;rounded=0;orthogonalLoop=1;jettySize=auto;html=1;dashed=1;startArrow=box;startFill=0;endArrow=none;endFill=0;labelBackgroundColor=none;fontColor=default;exitX=0.5;exitY=1;exitDx=0;exitDy=0;fillColor=#fff2cc;strokeColor=#d6b656;" parent="1" edge="1">
          <mxGeometry relative="1" as="geometry">
            <mxPoint x="329.95" y="240" as="sourcePoint" />
            <mxPoint x="289.95" y="420" as="targetPoint" />
            <Array as="points">
              <mxPoint x="329.95" y="420" />
            </Array>
          </mxGeometry>
        </mxCell>
        <mxCell id="mfK6N7BSNp6gK4buJ0qX-2" value="amo&lt;br&gt;driver" style="rounded=1;whiteSpace=wrap;html=1;labelBackgroundColor=none;fillColor=#fff2cc;strokeColor=#d6b656;" parent="1" vertex="1">
          <mxGeometry x="259.95" y="320" width="60" height="60" as="geometry" />
        </mxCell>
        <mxCell id="mfK6N7BSNp6gK4buJ0qX-3" style="edgeStyle=orthogonalEdgeStyle;rounded=0;orthogonalLoop=1;jettySize=auto;html=1;exitX=0.5;exitY=0;exitDx=0;exitDy=0;entryX=0.33;entryY=1;entryDx=0;entryDy=0;entryPerimeter=0;startArrow=diamond;startFill=0;labelBackgroundColor=none;fontColor=default;fillColor=#fff2cc;strokeColor=#d6b656;" parent="1" edge="1">
          <mxGeometry relative="1" as="geometry">
            <mxPoint x="329.95" y="180" as="sourcePoint" />
            <mxPoint x="329.95" y="110" as="targetPoint" />
          </mxGeometry>
        </mxCell>
        <mxCell id="mfK6N7BSNp6gK4buJ0qX-4" style="edgeStyle=orthogonalEdgeStyle;rounded=0;orthogonalLoop=1;jettySize=auto;html=1;exitX=0.5;exitY=1;exitDx=0;exitDy=0;startArrow=diamond;startFill=0;entryX=0.5;entryY=0;entryDx=0;entryDy=0;labelBackgroundColor=none;fontColor=default;fillColor=#dae8fc;strokeColor=#6c8ebf;" parent="1" source="mfK6N7BSNp6gK4buJ0qX-5" target="mfK6N7BSNp6gK4buJ0qX-2" edge="1">
          <mxGeometry relative="1" as="geometry">
            <mxPoint x="239.95" y="310" as="targetPoint" />
          </mxGeometry>
        </mxCell>
        <mxCell id="mfK6N7BSNp6gK4buJ0qX-5" value="test" style="rounded=1;whiteSpace=wrap;html=1;labelBackgroundColor=none;fillColor=#dae8fc;strokeColor=#6c8ebf;" parent="1" vertex="1">
          <mxGeometry x="269.95" y="270" width="40" height="20" as="geometry" />
        </mxCell>
        <mxCell id="mfK6N7BSNp6gK4buJ0qX-6" style="edgeStyle=orthogonalEdgeStyle;rounded=0;orthogonalLoop=1;jettySize=auto;html=1;exitX=0.5;exitY=1;exitDx=0;exitDy=0;entryX=0.169;entryY=0;entryDx=0;entryDy=0;entryPerimeter=0;startArrow=box;startFill=0;dashed=1;labelBackgroundColor=none;fontColor=default;fillColor=#fff2cc;strokeColor=#d6b656;" parent="1" source="mfK6N7BSNp6gK4buJ0qX-2" edge="1">
          <mxGeometry relative="1" as="geometry">
            <mxPoint x="289.95" y="530" as="targetPoint" />
          </mxGeometry>
        </mxCell>
        <mxCell id="mfK6N7BSNp6gK4buJ0qX-7" value="amo&lt;br&gt;monitor" style="rounded=1;whiteSpace=wrap;html=1;labelBackgroundColor=none;fillColor=#fff2cc;strokeColor=#d6b656;" parent="1" vertex="1">
          <mxGeometry x="299.95" y="180" width="60" height="60" as="geometry" />
        </mxCell>
        <mxCell id="mfK6N7BSNp6gK4buJ0qX-8" style="edgeStyle=orthogonalEdgeStyle;rounded=0;orthogonalLoop=1;jettySize=auto;html=1;dashed=1;startArrow=box;startFill=0;endArrow=none;endFill=0;labelBackgroundColor=none;fontColor=default;exitX=0.5;exitY=1;exitDx=0;exitDy=0;fillColor=#fff2cc;strokeColor=#d6b656;" parent="1" source="mfK6N7BSNp6gK4buJ0qX-10" edge="1">
          <mxGeometry relative="1" as="geometry">
            <mxPoint x="1130" y="420" as="sourcePoint" />
            <mxPoint x="830" y="420" as="targetPoint" />
            <Array as="points">
              <mxPoint x="870" y="420" />
            </Array>
          </mxGeometry>
        </mxCell>
        <mxCell id="mfK6N7BSNp6gK4buJ0qX-9" value="amo&lt;br&gt;driver" style="rounded=1;whiteSpace=wrap;html=1;labelBackgroundColor=none;fillColor=#fff2cc;strokeColor=#d6b656;" parent="1" vertex="1">
          <mxGeometry x="800" y="320" width="60" height="60" as="geometry" />
        </mxCell>
        <mxCell id="mfK6N7BSNp6gK4buJ0qX-10" value="amo&lt;br&gt;monitor" style="rounded=1;whiteSpace=wrap;html=1;labelBackgroundColor=none;fillColor=#fff2cc;strokeColor=#d6b656;" parent="1" vertex="1">
          <mxGeometry x="840" y="180" width="60" height="60" as="geometry" />
        </mxCell>
        <mxCell id="mfK6N7BSNp6gK4buJ0qX-11" style="edgeStyle=orthogonalEdgeStyle;rounded=0;orthogonalLoop=1;jettySize=auto;html=1;exitX=0.5;exitY=0;exitDx=0;exitDy=0;entryX=0.83;entryY=0.996;entryDx=0;entryDy=0;entryPerimeter=0;startArrow=diamond;startFill=0;labelBackgroundColor=none;fontColor=default;fillColor=#fff2cc;strokeColor=#d6b656;" parent="1" source="mfK6N7BSNp6gK4buJ0qX-10" edge="1">
          <mxGeometry relative="1" as="geometry">
            <mxPoint x="870.0000000000005" y="109.59999999999991" as="targetPoint" />
          </mxGeometry>
        </mxCell>
        <mxCell id="mfK6N7BSNp6gK4buJ0qX-12" style="edgeStyle=orthogonalEdgeStyle;rounded=0;orthogonalLoop=1;jettySize=auto;html=1;exitX=0.5;exitY=1;exitDx=0;exitDy=0;startArrow=diamond;startFill=0;entryX=0.5;entryY=0;entryDx=0;entryDy=0;labelBackgroundColor=none;fontColor=default;fillColor=#dae8fc;strokeColor=#6c8ebf;" parent="1" source="mfK6N7BSNp6gK4buJ0qX-13" target="mfK6N7BSNp6gK4buJ0qX-9" edge="1">
          <mxGeometry relative="1" as="geometry">
            <mxPoint x="780" y="310" as="targetPoint" />
          </mxGeometry>
        </mxCell>
        <mxCell id="mfK6N7BSNp6gK4buJ0qX-13" value="test" style="rounded=1;whiteSpace=wrap;html=1;labelBackgroundColor=none;fillColor=#dae8fc;strokeColor=#6c8ebf;" parent="1" vertex="1">
          <mxGeometry x="810" y="270" width="40" height="20" as="geometry" />
        </mxCell>
        <mxCell id="mfK6N7BSNp6gK4buJ0qX-14" style="edgeStyle=orthogonalEdgeStyle;rounded=0;orthogonalLoop=1;jettySize=auto;html=1;exitX=0.5;exitY=1;exitDx=0;exitDy=0;entryX=0.169;entryY=0;entryDx=0;entryDy=0;entryPerimeter=0;startArrow=box;startFill=0;dashed=1;labelBackgroundColor=none;fontColor=default;fillColor=#fff2cc;strokeColor=#d6b656;" parent="1" source="mfK6N7BSNp6gK4buJ0qX-9" edge="1">
          <mxGeometry relative="1" as="geometry">
            <mxPoint x="830.2799999999997" y="530" as="targetPoint" />
          </mxGeometry>
        </mxCell>
      </root>
    </mxGraphModel>
  </diagram>
</mxfile>
